# xmcd CD database file
#
# Track frame offsets:
#	150
#	23005
#	47340
#	70195
#
# Disc length: 1258 seconds
#
# Revision: 5
# Processed by: cddbd v1.5.1PL2 Copyright (c) Steve Scherf et al.
# Submitted via: CDex 1.51
#
DISCID=2604e804
DTITLE=REIRA starring YUNA ITO - ENDLESS STORY
DYEAR=2005
DGENRE=J-Pop
TTITLE0=ENDLESS STORY
TTITLE1=JOURNEY
TTITLE2=ENDLESS STORY -Instrumental-
TTITLE3=JOURNEY -Instrumental-
EXTD=YEAR: 2005
EXTT0=
EXTT1=
EXTT2=
EXTT3=
PLAYORDER=
